<mxfile host="app.diagrams.net" modified="2024-05-30T02:41:59.909Z" agent="Mozilla/5.0 (Windows NT 10.0; Win64; x64; rv:126.0) Gecko/20100101 Firefox/126.0" etag="EGAliKVpUSflw1ShRqpX" version="23.0.2" type="device">
  <diagram name="Page-1" id="9-YeYc9EfIeIYmm9qs-9">
    <mxGraphModel dx="1763" dy="1561" grid="1" gridSize="10" guides="1" tooltips="1" connect="1" arrows="1" fold="1" page="1" pageScale="1" pageWidth="850" pageHeight="1100" math="0" shadow="0">
      <root>
        <mxCell id="0" />
        <mxCell id="1" parent="0" />
        <mxCell id="-I_rnd9T3mD2Z0JPihhL-46" style="edgeStyle=orthogonalEdgeStyle;rounded=0;orthogonalLoop=1;jettySize=auto;html=1;exitX=1;exitY=0.5;exitDx=0;exitDy=0;entryX=0;entryY=0.5;entryDx=0;entryDy=0;endArrow=none;endFill=0;" edge="1" parent="1" source="-I_rnd9T3mD2Z0JPihhL-2" target="-I_rnd9T3mD2Z0JPihhL-41">
          <mxGeometry relative="1" as="geometry" />
        </mxCell>
        <mxCell id="-I_rnd9T3mD2Z0JPihhL-60" style="edgeStyle=orthogonalEdgeStyle;rounded=0;orthogonalLoop=1;jettySize=auto;html=1;exitX=0.5;exitY=1;exitDx=0;exitDy=0;entryX=0.5;entryY=0;entryDx=0;entryDy=0;endArrow=none;endFill=0;" edge="1" parent="1" source="-I_rnd9T3mD2Z0JPihhL-2" target="-I_rnd9T3mD2Z0JPihhL-59">
          <mxGeometry relative="1" as="geometry" />
        </mxCell>
        <mxCell id="-I_rnd9T3mD2Z0JPihhL-68" style="edgeStyle=orthogonalEdgeStyle;rounded=0;orthogonalLoop=1;jettySize=auto;html=1;exitX=0.5;exitY=0;exitDx=0;exitDy=0;entryX=0.5;entryY=1;entryDx=0;entryDy=0;endArrow=none;endFill=0;" edge="1" parent="1" source="-I_rnd9T3mD2Z0JPihhL-2" target="-I_rnd9T3mD2Z0JPihhL-67">
          <mxGeometry relative="1" as="geometry" />
        </mxCell>
        <mxCell id="-I_rnd9T3mD2Z0JPihhL-76" style="edgeStyle=orthogonalEdgeStyle;rounded=0;orthogonalLoop=1;jettySize=auto;html=1;exitX=1;exitY=1;exitDx=0;exitDy=0;entryX=0.5;entryY=0;entryDx=0;entryDy=0;endArrow=none;endFill=0;" edge="1" parent="1" source="-I_rnd9T3mD2Z0JPihhL-2" target="-I_rnd9T3mD2Z0JPihhL-74">
          <mxGeometry relative="1" as="geometry">
            <Array as="points">
              <mxPoint x="325" y="240" />
              <mxPoint x="448" y="240" />
            </Array>
          </mxGeometry>
        </mxCell>
        <mxCell id="-I_rnd9T3mD2Z0JPihhL-84" style="edgeStyle=orthogonalEdgeStyle;rounded=0;orthogonalLoop=1;jettySize=auto;html=1;exitX=1;exitY=0;exitDx=0;exitDy=0;entryX=0.5;entryY=1;entryDx=0;entryDy=0;endArrow=none;endFill=0;" edge="1" parent="1" target="-I_rnd9T3mD2Z0JPihhL-83">
          <mxGeometry relative="1" as="geometry">
            <mxPoint x="325" y="181" as="sourcePoint" />
            <mxPoint x="510" y="150" as="targetPoint" />
            <Array as="points">
              <mxPoint x="325" y="161" />
              <mxPoint x="510" y="161" />
            </Array>
          </mxGeometry>
        </mxCell>
        <mxCell id="-I_rnd9T3mD2Z0JPihhL-91" style="edgeStyle=orthogonalEdgeStyle;rounded=0;orthogonalLoop=1;jettySize=auto;html=1;exitX=0.5;exitY=0;exitDx=0;exitDy=0;entryX=1;entryY=0.5;entryDx=0;entryDy=0;endArrow=none;endFill=0;" edge="1" parent="1" source="-I_rnd9T3mD2Z0JPihhL-95" target="-I_rnd9T3mD2Z0JPihhL-26">
          <mxGeometry relative="1" as="geometry">
            <Array as="points">
              <mxPoint x="163" y="60" />
            </Array>
          </mxGeometry>
        </mxCell>
        <mxCell id="-I_rnd9T3mD2Z0JPihhL-100" style="edgeStyle=orthogonalEdgeStyle;rounded=0;orthogonalLoop=1;jettySize=auto;html=1;exitX=0;exitY=1;exitDx=0;exitDy=0;entryX=0.5;entryY=0;entryDx=0;entryDy=0;endArrow=none;endFill=0;" edge="1" parent="1" source="-I_rnd9T3mD2Z0JPihhL-2" target="-I_rnd9T3mD2Z0JPihhL-99">
          <mxGeometry relative="1" as="geometry">
            <Array as="points">
              <mxPoint x="210" y="220" />
              <mxPoint x="210" y="290" />
              <mxPoint x="10" y="290" />
            </Array>
          </mxGeometry>
        </mxCell>
        <mxCell id="-I_rnd9T3mD2Z0JPihhL-2" value="User" style="whiteSpace=wrap;html=1;align=center;fillColor=#f8cecc;strokeColor=#b85450;" vertex="1" parent="1">
          <mxGeometry x="225" y="180" width="100" height="40" as="geometry" />
        </mxCell>
        <mxCell id="-I_rnd9T3mD2Z0JPihhL-42" style="edgeStyle=orthogonalEdgeStyle;rounded=0;orthogonalLoop=1;jettySize=auto;html=1;exitX=1;exitY=0.5;exitDx=0;exitDy=0;entryX=0;entryY=0.5;entryDx=0;entryDy=0;endArrow=none;endFill=0;" edge="1" parent="1" source="-I_rnd9T3mD2Z0JPihhL-3" target="-I_rnd9T3mD2Z0JPihhL-2">
          <mxGeometry relative="1" as="geometry">
            <Array as="points">
              <mxPoint x="180" y="130" />
              <mxPoint x="180" y="200" />
            </Array>
          </mxGeometry>
        </mxCell>
        <mxCell id="-I_rnd9T3mD2Z0JPihhL-3" value="user_id" style="ellipse;whiteSpace=wrap;html=1;align=center;fontStyle=4;" vertex="1" parent="1">
          <mxGeometry x="-30" y="110" width="100" height="40" as="geometry" />
        </mxCell>
        <mxCell id="-I_rnd9T3mD2Z0JPihhL-43" style="edgeStyle=orthogonalEdgeStyle;rounded=0;orthogonalLoop=1;jettySize=auto;html=1;exitX=1;exitY=0.5;exitDx=0;exitDy=0;entryX=0;entryY=0.5;entryDx=0;entryDy=0;endArrow=none;endFill=0;" edge="1" parent="1" source="-I_rnd9T3mD2Z0JPihhL-4" target="-I_rnd9T3mD2Z0JPihhL-2">
          <mxGeometry relative="1" as="geometry" />
        </mxCell>
        <mxCell id="-I_rnd9T3mD2Z0JPihhL-4" value="name" style="ellipse;whiteSpace=wrap;html=1;align=center;" vertex="1" parent="1">
          <mxGeometry x="20" y="150" width="100" height="40" as="geometry" />
        </mxCell>
        <mxCell id="-I_rnd9T3mD2Z0JPihhL-44" style="edgeStyle=orthogonalEdgeStyle;rounded=0;orthogonalLoop=1;jettySize=auto;html=1;exitX=1;exitY=0.5;exitDx=0;exitDy=0;entryX=0;entryY=0.5;entryDx=0;entryDy=0;endArrow=none;endFill=0;" edge="1" parent="1" source="-I_rnd9T3mD2Z0JPihhL-5" target="-I_rnd9T3mD2Z0JPihhL-2">
          <mxGeometry relative="1" as="geometry" />
        </mxCell>
        <mxCell id="-I_rnd9T3mD2Z0JPihhL-5" value="email" style="ellipse;whiteSpace=wrap;html=1;align=center;" vertex="1" parent="1">
          <mxGeometry x="20" y="200" width="100" height="40" as="geometry" />
        </mxCell>
        <mxCell id="-I_rnd9T3mD2Z0JPihhL-45" style="edgeStyle=orthogonalEdgeStyle;rounded=0;orthogonalLoop=1;jettySize=auto;html=1;exitX=1;exitY=0.5;exitDx=0;exitDy=0;entryX=0;entryY=0.5;entryDx=0;entryDy=0;endArrow=none;endFill=0;" edge="1" parent="1" source="-I_rnd9T3mD2Z0JPihhL-6" target="-I_rnd9T3mD2Z0JPihhL-2">
          <mxGeometry relative="1" as="geometry">
            <mxPoint x="220" y="200" as="targetPoint" />
            <Array as="points">
              <mxPoint x="180" y="260" />
              <mxPoint x="180" y="200" />
            </Array>
          </mxGeometry>
        </mxCell>
        <mxCell id="-I_rnd9T3mD2Z0JPihhL-6" value="password" style="ellipse;whiteSpace=wrap;html=1;align=center;" vertex="1" parent="1">
          <mxGeometry x="-30" y="240" width="100" height="40" as="geometry" />
        </mxCell>
        <mxCell id="-I_rnd9T3mD2Z0JPihhL-48" style="edgeStyle=orthogonalEdgeStyle;rounded=0;orthogonalLoop=1;jettySize=auto;html=1;exitX=1;exitY=0.5;exitDx=0;exitDy=0;entryX=0;entryY=0.5;entryDx=0;entryDy=0;endArrow=none;endFill=0;" edge="1" parent="1" source="-I_rnd9T3mD2Z0JPihhL-7" target="-I_rnd9T3mD2Z0JPihhL-8">
          <mxGeometry relative="1" as="geometry" />
        </mxCell>
        <mxCell id="-I_rnd9T3mD2Z0JPihhL-49" style="edgeStyle=orthogonalEdgeStyle;rounded=0;orthogonalLoop=1;jettySize=auto;html=1;exitX=1;exitY=0.5;exitDx=0;exitDy=0;entryX=0;entryY=0.5;entryDx=0;entryDy=0;endArrow=none;endFill=0;" edge="1" parent="1" source="-I_rnd9T3mD2Z0JPihhL-7" target="-I_rnd9T3mD2Z0JPihhL-9">
          <mxGeometry relative="1" as="geometry" />
        </mxCell>
        <mxCell id="-I_rnd9T3mD2Z0JPihhL-50" style="edgeStyle=orthogonalEdgeStyle;rounded=0;orthogonalLoop=1;jettySize=auto;html=1;exitX=1;exitY=0.5;exitDx=0;exitDy=0;entryX=0;entryY=0.5;entryDx=0;entryDy=0;endArrow=none;endFill=0;" edge="1" parent="1" source="-I_rnd9T3mD2Z0JPihhL-7" target="-I_rnd9T3mD2Z0JPihhL-10">
          <mxGeometry relative="1" as="geometry" />
        </mxCell>
        <mxCell id="-I_rnd9T3mD2Z0JPihhL-7" value="education_module" style="whiteSpace=wrap;html=1;align=center;fillColor=#f8cecc;strokeColor=#b85450;" vertex="1" parent="1">
          <mxGeometry x="560" y="180" width="100" height="40" as="geometry" />
        </mxCell>
        <mxCell id="-I_rnd9T3mD2Z0JPihhL-8" value="module_id" style="ellipse;whiteSpace=wrap;html=1;align=center;fontStyle=4;" vertex="1" parent="1">
          <mxGeometry x="710" y="130" width="100" height="40" as="geometry" />
        </mxCell>
        <mxCell id="-I_rnd9T3mD2Z0JPihhL-9" value="title" style="ellipse;whiteSpace=wrap;html=1;align=center;" vertex="1" parent="1">
          <mxGeometry x="710" y="180" width="100" height="40" as="geometry" />
        </mxCell>
        <mxCell id="-I_rnd9T3mD2Z0JPihhL-10" value="content_type" style="ellipse;whiteSpace=wrap;html=1;align=center;" vertex="1" parent="1">
          <mxGeometry x="710" y="230" width="100" height="40" as="geometry" />
        </mxCell>
        <mxCell id="-I_rnd9T3mD2Z0JPihhL-61" style="edgeStyle=orthogonalEdgeStyle;rounded=0;orthogonalLoop=1;jettySize=auto;html=1;exitX=0.5;exitY=0;exitDx=0;exitDy=0;entryX=0.5;entryY=1;entryDx=0;entryDy=0;endArrow=none;endFill=0;" edge="1" parent="1" source="-I_rnd9T3mD2Z0JPihhL-11" target="-I_rnd9T3mD2Z0JPihhL-59">
          <mxGeometry relative="1" as="geometry" />
        </mxCell>
        <mxCell id="-I_rnd9T3mD2Z0JPihhL-11" value="Buyer Information" style="whiteSpace=wrap;html=1;align=center;fillColor=#f8cecc;strokeColor=#b85450;" vertex="1" parent="1">
          <mxGeometry x="225" y="340" width="100" height="40" as="geometry" />
        </mxCell>
        <mxCell id="-I_rnd9T3mD2Z0JPihhL-55" style="edgeStyle=orthogonalEdgeStyle;rounded=0;orthogonalLoop=1;jettySize=auto;html=1;exitX=1;exitY=0.5;exitDx=0;exitDy=0;entryX=0;entryY=0.5;entryDx=0;entryDy=0;endArrow=none;endFill=0;" edge="1" parent="1" source="-I_rnd9T3mD2Z0JPihhL-13" target="-I_rnd9T3mD2Z0JPihhL-11">
          <mxGeometry relative="1" as="geometry" />
        </mxCell>
        <mxCell id="-I_rnd9T3mD2Z0JPihhL-13" value="buyer_id" style="ellipse;whiteSpace=wrap;html=1;align=center;fontStyle=4;" vertex="1" parent="1">
          <mxGeometry x="90" y="300" width="100" height="40" as="geometry" />
        </mxCell>
        <mxCell id="-I_rnd9T3mD2Z0JPihhL-56" style="edgeStyle=orthogonalEdgeStyle;rounded=0;orthogonalLoop=1;jettySize=auto;html=1;exitX=1;exitY=0.5;exitDx=0;exitDy=0;entryX=0;entryY=0.5;entryDx=0;entryDy=0;endArrow=none;endFill=0;" edge="1" parent="1" source="-I_rnd9T3mD2Z0JPihhL-14" target="-I_rnd9T3mD2Z0JPihhL-11">
          <mxGeometry relative="1" as="geometry">
            <mxPoint x="230" y="359.9999999999999" as="targetPoint" />
            <Array as="points">
              <mxPoint x="190" y="360" />
            </Array>
          </mxGeometry>
        </mxCell>
        <mxCell id="-I_rnd9T3mD2Z0JPihhL-14" value="name" style="ellipse;whiteSpace=wrap;html=1;align=center;" vertex="1" parent="1">
          <mxGeometry x="90" y="344" width="100" height="40" as="geometry" />
        </mxCell>
        <mxCell id="-I_rnd9T3mD2Z0JPihhL-58" style="edgeStyle=orthogonalEdgeStyle;rounded=0;orthogonalLoop=1;jettySize=auto;html=1;exitX=1;exitY=0.5;exitDx=0;exitDy=0;entryX=0;entryY=0.5;entryDx=0;entryDy=0;endArrow=none;endFill=0;" edge="1" parent="1" source="-I_rnd9T3mD2Z0JPihhL-15" target="-I_rnd9T3mD2Z0JPihhL-11">
          <mxGeometry relative="1" as="geometry">
            <Array as="points">
              <mxPoint x="210" y="454" />
              <mxPoint x="210" y="360" />
            </Array>
          </mxGeometry>
        </mxCell>
        <mxCell id="-I_rnd9T3mD2Z0JPihhL-15" value="country" style="ellipse;whiteSpace=wrap;html=1;align=center;" vertex="1" parent="1">
          <mxGeometry x="90" y="434" width="100" height="40" as="geometry" />
        </mxCell>
        <mxCell id="-I_rnd9T3mD2Z0JPihhL-57" style="edgeStyle=orthogonalEdgeStyle;rounded=0;orthogonalLoop=1;jettySize=auto;html=1;exitX=1;exitY=0.5;exitDx=0;exitDy=0;entryX=0;entryY=0.5;entryDx=0;entryDy=0;endArrow=none;endFill=0;" edge="1" parent="1" source="-I_rnd9T3mD2Z0JPihhL-16" target="-I_rnd9T3mD2Z0JPihhL-11">
          <mxGeometry relative="1" as="geometry">
            <mxPoint x="230" y="419.7647058823529" as="targetPoint" />
            <Array as="points">
              <mxPoint x="190" y="410" />
              <mxPoint x="210" y="410" />
              <mxPoint x="210" y="360" />
            </Array>
          </mxGeometry>
        </mxCell>
        <mxCell id="-I_rnd9T3mD2Z0JPihhL-16" value="contact" style="ellipse;whiteSpace=wrap;html=1;align=center;" vertex="1" parent="1">
          <mxGeometry x="90" y="389" width="100" height="40" as="geometry" />
        </mxCell>
        <mxCell id="-I_rnd9T3mD2Z0JPihhL-17" value="RegulationCompliance" style="whiteSpace=wrap;html=1;align=center;fillColor=#f8cecc;strokeColor=#b85450;" vertex="1" parent="1">
          <mxGeometry x="212.5" y="40" width="125" height="40" as="geometry" />
        </mxCell>
        <mxCell id="-I_rnd9T3mD2Z0JPihhL-64" style="edgeStyle=orthogonalEdgeStyle;rounded=0;orthogonalLoop=1;jettySize=auto;html=1;exitX=1;exitY=0.5;exitDx=0;exitDy=0;entryX=0.5;entryY=0;entryDx=0;entryDy=0;endArrow=none;endFill=0;" edge="1" parent="1" source="-I_rnd9T3mD2Z0JPihhL-18" target="-I_rnd9T3mD2Z0JPihhL-17">
          <mxGeometry relative="1" as="geometry">
            <Array as="points">
              <mxPoint x="275" y="10" />
            </Array>
          </mxGeometry>
        </mxCell>
        <mxCell id="-I_rnd9T3mD2Z0JPihhL-18" value="regulation_id" style="ellipse;whiteSpace=wrap;html=1;align=center;fontStyle=4;" vertex="1" parent="1">
          <mxGeometry x="161" y="-10" width="100" height="40" as="geometry" />
        </mxCell>
        <mxCell id="-I_rnd9T3mD2Z0JPihhL-65" style="edgeStyle=orthogonalEdgeStyle;rounded=0;orthogonalLoop=1;jettySize=auto;html=1;exitX=0.5;exitY=1;exitDx=0;exitDy=0;entryX=0.5;entryY=0;entryDx=0;entryDy=0;endArrow=none;endFill=0;" edge="1" parent="1" source="-I_rnd9T3mD2Z0JPihhL-19" target="-I_rnd9T3mD2Z0JPihhL-17">
          <mxGeometry relative="1" as="geometry" />
        </mxCell>
        <mxCell id="-I_rnd9T3mD2Z0JPihhL-19" value="country" style="ellipse;whiteSpace=wrap;html=1;align=center;" vertex="1" parent="1">
          <mxGeometry x="225" y="-50" width="100" height="40" as="geometry" />
        </mxCell>
        <mxCell id="-I_rnd9T3mD2Z0JPihhL-70" style="edgeStyle=orthogonalEdgeStyle;rounded=0;orthogonalLoop=1;jettySize=auto;html=1;exitX=0;exitY=0.5;exitDx=0;exitDy=0;entryX=0.5;entryY=0;entryDx=0;entryDy=0;endArrow=none;endFill=0;" edge="1" parent="1" source="-I_rnd9T3mD2Z0JPihhL-20" target="-I_rnd9T3mD2Z0JPihhL-17">
          <mxGeometry relative="1" as="geometry" />
        </mxCell>
        <mxCell id="-I_rnd9T3mD2Z0JPihhL-20" value="details" style="ellipse;whiteSpace=wrap;html=1;align=center;" vertex="1" parent="1">
          <mxGeometry x="287.5" y="-10" width="100" height="40" as="geometry" />
        </mxCell>
        <mxCell id="-I_rnd9T3mD2Z0JPihhL-21" value="FinancialGuidance" style="whiteSpace=wrap;html=1;align=center;fillColor=#f8cecc;strokeColor=#b85450;" vertex="1" parent="1">
          <mxGeometry x="397.5" y="340" width="100" height="40" as="geometry" />
        </mxCell>
        <mxCell id="-I_rnd9T3mD2Z0JPihhL-79" style="edgeStyle=orthogonalEdgeStyle;rounded=0;orthogonalLoop=1;jettySize=auto;html=1;exitX=0.5;exitY=0;exitDx=0;exitDy=0;entryX=0.5;entryY=1;entryDx=0;entryDy=0;endArrow=none;endFill=0;" edge="1" parent="1" source="-I_rnd9T3mD2Z0JPihhL-23" target="-I_rnd9T3mD2Z0JPihhL-21">
          <mxGeometry relative="1" as="geometry" />
        </mxCell>
        <mxCell id="-I_rnd9T3mD2Z0JPihhL-23" value="guidance_information_id" style="ellipse;whiteSpace=wrap;html=1;align=center;fontStyle=4;" vertex="1" parent="1">
          <mxGeometry x="377.5" y="429" width="140" height="40" as="geometry" />
        </mxCell>
        <mxCell id="-I_rnd9T3mD2Z0JPihhL-78" style="edgeStyle=orthogonalEdgeStyle;rounded=0;orthogonalLoop=1;jettySize=auto;html=1;exitX=1;exitY=0.5;exitDx=0;exitDy=0;entryX=0.5;entryY=1;entryDx=0;entryDy=0;endArrow=none;endFill=0;" edge="1" parent="1" source="-I_rnd9T3mD2Z0JPihhL-24" target="-I_rnd9T3mD2Z0JPihhL-21">
          <mxGeometry relative="1" as="geometry" />
        </mxCell>
        <mxCell id="-I_rnd9T3mD2Z0JPihhL-24" value="Details" style="ellipse;whiteSpace=wrap;html=1;align=center;" vertex="1" parent="1">
          <mxGeometry x="312" y="389" width="100" height="40" as="geometry" />
        </mxCell>
        <mxCell id="-I_rnd9T3mD2Z0JPihhL-80" style="edgeStyle=orthogonalEdgeStyle;rounded=0;orthogonalLoop=1;jettySize=auto;html=1;exitX=0;exitY=0.5;exitDx=0;exitDy=0;entryX=0.5;entryY=1;entryDx=0;entryDy=0;endArrow=none;endFill=0;" edge="1" parent="1" source="-I_rnd9T3mD2Z0JPihhL-25" target="-I_rnd9T3mD2Z0JPihhL-21">
          <mxGeometry relative="1" as="geometry" />
        </mxCell>
        <mxCell id="-I_rnd9T3mD2Z0JPihhL-25" value="source" style="ellipse;whiteSpace=wrap;html=1;align=center;" vertex="1" parent="1">
          <mxGeometry x="487.5" y="389" width="100" height="40" as="geometry" />
        </mxCell>
        <mxCell id="-I_rnd9T3mD2Z0JPihhL-92" style="edgeStyle=orthogonalEdgeStyle;rounded=0;orthogonalLoop=1;jettySize=auto;html=1;exitX=0;exitY=0.5;exitDx=0;exitDy=0;entryX=1;entryY=0.5;entryDx=0;entryDy=0;endArrow=none;endFill=0;" edge="1" parent="1" source="-I_rnd9T3mD2Z0JPihhL-26" target="-I_rnd9T3mD2Z0JPihhL-27">
          <mxGeometry relative="1" as="geometry" />
        </mxCell>
        <mxCell id="-I_rnd9T3mD2Z0JPihhL-26" value="Comodity Selection" style="whiteSpace=wrap;html=1;align=center;fillColor=#f8cecc;strokeColor=#b85450;" vertex="1" parent="1">
          <mxGeometry y="40" width="100" height="40" as="geometry" />
        </mxCell>
        <mxCell id="-I_rnd9T3mD2Z0JPihhL-27" value="comodity_id" style="ellipse;whiteSpace=wrap;html=1;align=center;fontStyle=4;" vertex="1" parent="1">
          <mxGeometry x="-130" y="40" width="100" height="40" as="geometry" />
        </mxCell>
        <mxCell id="-I_rnd9T3mD2Z0JPihhL-93" style="edgeStyle=orthogonalEdgeStyle;rounded=0;orthogonalLoop=1;jettySize=auto;html=1;exitX=1;exitY=0.5;exitDx=0;exitDy=0;entryX=0;entryY=0.5;entryDx=0;entryDy=0;endArrow=none;endFill=0;" edge="1" parent="1" source="-I_rnd9T3mD2Z0JPihhL-28" target="-I_rnd9T3mD2Z0JPihhL-26">
          <mxGeometry relative="1" as="geometry">
            <Array as="points">
              <mxPoint x="-20" y="10" />
              <mxPoint x="-20" y="60" />
            </Array>
          </mxGeometry>
        </mxCell>
        <mxCell id="-I_rnd9T3mD2Z0JPihhL-28" value="name" style="ellipse;whiteSpace=wrap;html=1;align=center;" vertex="1" parent="1">
          <mxGeometry x="-130" y="-10" width="100" height="40" as="geometry" />
        </mxCell>
        <mxCell id="-I_rnd9T3mD2Z0JPihhL-94" style="edgeStyle=orthogonalEdgeStyle;rounded=0;orthogonalLoop=1;jettySize=auto;html=1;exitX=1;exitY=0.5;exitDx=0;exitDy=0;entryX=0;entryY=0.5;entryDx=0;entryDy=0;endArrow=none;endFill=0;" edge="1" parent="1" source="-I_rnd9T3mD2Z0JPihhL-29" target="-I_rnd9T3mD2Z0JPihhL-26">
          <mxGeometry relative="1" as="geometry">
            <Array as="points">
              <mxPoint x="-20" y="110" />
              <mxPoint x="-20" y="60" />
            </Array>
          </mxGeometry>
        </mxCell>
        <mxCell id="-I_rnd9T3mD2Z0JPihhL-29" value="MarketPotential" style="ellipse;whiteSpace=wrap;html=1;align=center;" vertex="1" parent="1">
          <mxGeometry x="-130" y="90" width="100" height="40" as="geometry" />
        </mxCell>
        <mxCell id="-I_rnd9T3mD2Z0JPihhL-85" style="edgeStyle=orthogonalEdgeStyle;rounded=0;orthogonalLoop=1;jettySize=auto;html=1;exitX=0.5;exitY=1;exitDx=0;exitDy=0;entryX=0.5;entryY=0;entryDx=0;entryDy=0;endArrow=none;endFill=0;" edge="1" parent="1" source="-I_rnd9T3mD2Z0JPihhL-30" target="-I_rnd9T3mD2Z0JPihhL-83">
          <mxGeometry relative="1" as="geometry" />
        </mxCell>
        <mxCell id="-I_rnd9T3mD2Z0JPihhL-30" value="Networking Platform" style="whiteSpace=wrap;html=1;align=center;fillColor=#f8cecc;strokeColor=#b85450;" vertex="1" parent="1">
          <mxGeometry x="460" y="40" width="100" height="40" as="geometry" />
        </mxCell>
        <mxCell id="-I_rnd9T3mD2Z0JPihhL-86" style="edgeStyle=orthogonalEdgeStyle;rounded=0;orthogonalLoop=1;jettySize=auto;html=1;exitX=0.5;exitY=1;exitDx=0;exitDy=0;entryX=0.5;entryY=0;entryDx=0;entryDy=0;endArrow=none;endFill=0;" edge="1" parent="1" source="-I_rnd9T3mD2Z0JPihhL-31" target="-I_rnd9T3mD2Z0JPihhL-30">
          <mxGeometry relative="1" as="geometry" />
        </mxCell>
        <mxCell id="-I_rnd9T3mD2Z0JPihhL-31" value="platform_id" style="ellipse;whiteSpace=wrap;html=1;align=center;fontStyle=4;" vertex="1" parent="1">
          <mxGeometry x="459.75" y="-50" width="100" height="40" as="geometry" />
        </mxCell>
        <mxCell id="-I_rnd9T3mD2Z0JPihhL-87" style="edgeStyle=orthogonalEdgeStyle;rounded=0;orthogonalLoop=1;jettySize=auto;html=1;exitX=1;exitY=0.5;exitDx=0;exitDy=0;entryX=0.5;entryY=0;entryDx=0;entryDy=0;endArrow=none;endFill=0;" edge="1" parent="1" source="-I_rnd9T3mD2Z0JPihhL-32" target="-I_rnd9T3mD2Z0JPihhL-30">
          <mxGeometry relative="1" as="geometry" />
        </mxCell>
        <mxCell id="-I_rnd9T3mD2Z0JPihhL-32" value="name" style="ellipse;whiteSpace=wrap;html=1;align=center;" vertex="1" parent="1">
          <mxGeometry x="394" y="-10" width="100" height="40" as="geometry" />
        </mxCell>
        <mxCell id="-I_rnd9T3mD2Z0JPihhL-88" style="edgeStyle=orthogonalEdgeStyle;rounded=0;orthogonalLoop=1;jettySize=auto;html=1;exitX=0;exitY=0.5;exitDx=0;exitDy=0;entryX=0.5;entryY=0;entryDx=0;entryDy=0;endArrow=none;endFill=0;" edge="1" parent="1" source="-I_rnd9T3mD2Z0JPihhL-33" target="-I_rnd9T3mD2Z0JPihhL-30">
          <mxGeometry relative="1" as="geometry" />
        </mxCell>
        <mxCell id="-I_rnd9T3mD2Z0JPihhL-33" value="Market_Potential" style="ellipse;whiteSpace=wrap;html=1;align=center;" vertex="1" parent="1">
          <mxGeometry x="530" y="-10" width="100" height="40" as="geometry" />
        </mxCell>
        <mxCell id="-I_rnd9T3mD2Z0JPihhL-102" style="edgeStyle=orthogonalEdgeStyle;rounded=0;orthogonalLoop=1;jettySize=auto;html=1;exitX=0;exitY=0.5;exitDx=0;exitDy=0;entryX=1;entryY=0.5;entryDx=0;entryDy=0;endArrow=none;endFill=0;" edge="1" parent="1" source="-I_rnd9T3mD2Z0JPihhL-34" target="-I_rnd9T3mD2Z0JPihhL-36">
          <mxGeometry relative="1" as="geometry" />
        </mxCell>
        <mxCell id="-I_rnd9T3mD2Z0JPihhL-103" style="edgeStyle=orthogonalEdgeStyle;rounded=0;orthogonalLoop=1;jettySize=auto;html=1;exitX=0;exitY=0.5;exitDx=0;exitDy=0;entryX=1;entryY=0.5;entryDx=0;entryDy=0;endArrow=none;endFill=0;" edge="1" parent="1" source="-I_rnd9T3mD2Z0JPihhL-34" target="-I_rnd9T3mD2Z0JPihhL-37">
          <mxGeometry relative="1" as="geometry" />
        </mxCell>
        <mxCell id="-I_rnd9T3mD2Z0JPihhL-104" style="edgeStyle=orthogonalEdgeStyle;rounded=0;orthogonalLoop=1;jettySize=auto;html=1;exitX=0;exitY=0.5;exitDx=0;exitDy=0;entryX=1;entryY=0.5;entryDx=0;entryDy=0;endArrow=none;endFill=0;" edge="1" parent="1" source="-I_rnd9T3mD2Z0JPihhL-34" target="-I_rnd9T3mD2Z0JPihhL-35">
          <mxGeometry relative="1" as="geometry" />
        </mxCell>
        <mxCell id="-I_rnd9T3mD2Z0JPihhL-34" value="&lt;div align=&quot;center&quot;&gt;Feedback&amp;amp;Support&lt;/div&gt;" style="whiteSpace=wrap;html=1;align=center;fillColor=#f8cecc;strokeColor=#b85450;" vertex="1" parent="1">
          <mxGeometry x="-190" y="330" width="110" height="40" as="geometry" />
        </mxCell>
        <mxCell id="-I_rnd9T3mD2Z0JPihhL-35" value="feedback_id" style="ellipse;whiteSpace=wrap;html=1;align=center;fontStyle=4;" vertex="1" parent="1">
          <mxGeometry x="-330" y="384" width="100" height="40" as="geometry" />
        </mxCell>
        <mxCell id="-I_rnd9T3mD2Z0JPihhL-36" value="message" style="ellipse;whiteSpace=wrap;html=1;align=center;" vertex="1" parent="1">
          <mxGeometry x="-330" y="330" width="100" height="40" as="geometry" />
        </mxCell>
        <mxCell id="-I_rnd9T3mD2Z0JPihhL-37" value="date" style="ellipse;whiteSpace=wrap;html=1;align=center;" vertex="1" parent="1">
          <mxGeometry x="-330" y="280" width="100" height="40" as="geometry" />
        </mxCell>
        <mxCell id="-I_rnd9T3mD2Z0JPihhL-38" value="SearchFilter" style="whiteSpace=wrap;html=1;align=center;fillColor=#f8cecc;strokeColor=#b85450;" vertex="1" parent="1">
          <mxGeometry x="-112.5" y="460" width="100" height="40" as="geometry" />
        </mxCell>
        <mxCell id="-I_rnd9T3mD2Z0JPihhL-39" value="Input" style="ellipse;whiteSpace=wrap;html=1;align=center;" vertex="1" parent="1">
          <mxGeometry x="-250" y="460" width="100" height="40" as="geometry" />
        </mxCell>
        <mxCell id="-I_rnd9T3mD2Z0JPihhL-40" value="Filters" style="ellipse;whiteSpace=wrap;html=1;align=center;" vertex="1" parent="1">
          <mxGeometry x="-250" y="510" width="100" height="40" as="geometry" />
        </mxCell>
        <mxCell id="-I_rnd9T3mD2Z0JPihhL-47" style="edgeStyle=orthogonalEdgeStyle;rounded=0;orthogonalLoop=1;jettySize=auto;html=1;exitX=1;exitY=0.5;exitDx=0;exitDy=0;entryX=0;entryY=0.5;entryDx=0;entryDy=0;endArrow=none;endFill=0;" edge="1" parent="1" source="-I_rnd9T3mD2Z0JPihhL-41" target="-I_rnd9T3mD2Z0JPihhL-7">
          <mxGeometry relative="1" as="geometry" />
        </mxCell>
        <mxCell id="-I_rnd9T3mD2Z0JPihhL-41" value="mengakses" style="shape=rhombus;perimeter=rhombusPerimeter;whiteSpace=wrap;html=1;align=center;" vertex="1" parent="1">
          <mxGeometry x="387.5" y="170" width="120" height="60" as="geometry" />
        </mxCell>
        <mxCell id="-I_rnd9T3mD2Z0JPihhL-51" value="N..1" style="text;html=1;align=center;verticalAlign=middle;resizable=0;points=[];autosize=1;strokeColor=none;fillColor=none;" vertex="1" parent="1">
          <mxGeometry x="354" y="179" width="40" height="30" as="geometry" />
        </mxCell>
        <mxCell id="-I_rnd9T3mD2Z0JPihhL-52" value="N..1" style="text;html=1;align=center;verticalAlign=middle;resizable=0;points=[];autosize=1;strokeColor=none;fillColor=none;" vertex="1" parent="1">
          <mxGeometry x="497.5" y="178" width="40" height="30" as="geometry" />
        </mxCell>
        <mxCell id="-I_rnd9T3mD2Z0JPihhL-59" value="Melihat" style="shape=rhombus;perimeter=rhombusPerimeter;whiteSpace=wrap;html=1;align=center;" vertex="1" parent="1">
          <mxGeometry x="227.5" y="250" width="95" height="60" as="geometry" />
        </mxCell>
        <mxCell id="-I_rnd9T3mD2Z0JPihhL-62" value="N..M" style="text;html=1;align=center;verticalAlign=middle;resizable=0;points=[];autosize=1;strokeColor=none;fillColor=none;" vertex="1" parent="1">
          <mxGeometry x="262" y="229" width="50" height="30" as="geometry" />
        </mxCell>
        <mxCell id="-I_rnd9T3mD2Z0JPihhL-63" value="N..M" style="text;html=1;align=center;verticalAlign=middle;resizable=0;points=[];autosize=1;strokeColor=none;fillColor=none;" vertex="1" parent="1">
          <mxGeometry x="261" y="300" width="50" height="30" as="geometry" />
        </mxCell>
        <mxCell id="-I_rnd9T3mD2Z0JPihhL-69" style="edgeStyle=orthogonalEdgeStyle;rounded=0;orthogonalLoop=1;jettySize=auto;html=1;exitX=0.5;exitY=0;exitDx=0;exitDy=0;entryX=0.5;entryY=1;entryDx=0;entryDy=0;endArrow=none;endFill=0;" edge="1" parent="1" source="-I_rnd9T3mD2Z0JPihhL-67" target="-I_rnd9T3mD2Z0JPihhL-17">
          <mxGeometry relative="1" as="geometry" />
        </mxCell>
        <mxCell id="-I_rnd9T3mD2Z0JPihhL-67" value="Melihat" style="shape=rhombus;perimeter=rhombusPerimeter;whiteSpace=wrap;html=1;align=center;" vertex="1" parent="1">
          <mxGeometry x="222.5" y="110" width="105" height="40" as="geometry" />
        </mxCell>
        <mxCell id="-I_rnd9T3mD2Z0JPihhL-71" value="M..1" style="text;html=1;align=center;verticalAlign=middle;resizable=0;points=[];autosize=1;strokeColor=none;fillColor=none;" vertex="1" parent="1">
          <mxGeometry x="237" y="141" width="50" height="30" as="geometry" />
        </mxCell>
        <mxCell id="-I_rnd9T3mD2Z0JPihhL-72" value="1..N" style="text;html=1;align=center;verticalAlign=middle;resizable=0;points=[];autosize=1;strokeColor=none;fillColor=none;" vertex="1" parent="1">
          <mxGeometry x="242" y="88" width="40" height="30" as="geometry" />
        </mxCell>
        <mxCell id="-I_rnd9T3mD2Z0JPihhL-77" style="edgeStyle=orthogonalEdgeStyle;rounded=0;orthogonalLoop=1;jettySize=auto;html=1;exitX=0.5;exitY=1;exitDx=0;exitDy=0;entryX=0.5;entryY=0;entryDx=0;entryDy=0;endArrow=none;endFill=0;" edge="1" parent="1" source="-I_rnd9T3mD2Z0JPihhL-74" target="-I_rnd9T3mD2Z0JPihhL-21">
          <mxGeometry relative="1" as="geometry" />
        </mxCell>
        <mxCell id="-I_rnd9T3mD2Z0JPihhL-74" value="melihat" style="shape=rhombus;perimeter=rhombusPerimeter;whiteSpace=wrap;html=1;align=center;" vertex="1" parent="1">
          <mxGeometry x="391.25" y="250" width="112.5" height="60" as="geometry" />
        </mxCell>
        <mxCell id="-I_rnd9T3mD2Z0JPihhL-81" value="N..N" style="text;html=1;align=center;verticalAlign=middle;resizable=0;points=[];autosize=1;strokeColor=none;fillColor=none;" vertex="1" parent="1">
          <mxGeometry x="435" y="230" width="50" height="30" as="geometry" />
        </mxCell>
        <mxCell id="-I_rnd9T3mD2Z0JPihhL-82" value="N..N" style="text;html=1;align=center;verticalAlign=middle;resizable=0;points=[];autosize=1;strokeColor=none;fillColor=none;" vertex="1" parent="1">
          <mxGeometry x="435" y="300" width="50" height="30" as="geometry" />
        </mxCell>
        <mxCell id="-I_rnd9T3mD2Z0JPihhL-83" value="melihat" style="shape=rhombus;perimeter=rhombusPerimeter;whiteSpace=wrap;html=1;align=center;" vertex="1" parent="1">
          <mxGeometry x="458.75" y="100" width="102.5" height="49" as="geometry" />
        </mxCell>
        <mxCell id="-I_rnd9T3mD2Z0JPihhL-89" value="N..M" style="text;html=1;align=center;verticalAlign=middle;resizable=0;points=[];autosize=1;strokeColor=none;fillColor=none;" vertex="1" parent="1">
          <mxGeometry x="471" y="139" width="50" height="30" as="geometry" />
        </mxCell>
        <mxCell id="-I_rnd9T3mD2Z0JPihhL-90" value="N..M" style="text;html=1;align=center;verticalAlign=middle;resizable=0;points=[];autosize=1;strokeColor=none;fillColor=none;" vertex="1" parent="1">
          <mxGeometry x="496" y="79" width="50" height="30" as="geometry" />
        </mxCell>
        <mxCell id="-I_rnd9T3mD2Z0JPihhL-96" value="" style="edgeStyle=orthogonalEdgeStyle;rounded=0;orthogonalLoop=1;jettySize=auto;html=1;exitX=0;exitY=0;exitDx=0;exitDy=0;entryX=0.5;entryY=1;entryDx=0;entryDy=0;endArrow=none;endFill=0;" edge="1" parent="1" source="-I_rnd9T3mD2Z0JPihhL-2" target="-I_rnd9T3mD2Z0JPihhL-95">
          <mxGeometry relative="1" as="geometry">
            <mxPoint x="225" y="180" as="sourcePoint" />
            <mxPoint x="100" y="60" as="targetPoint" />
            <Array as="points">
              <mxPoint x="200" y="180" />
              <mxPoint x="200" y="120" />
              <mxPoint x="162" y="120" />
            </Array>
          </mxGeometry>
        </mxCell>
        <mxCell id="-I_rnd9T3mD2Z0JPihhL-95" value="mengakses" style="shape=rhombus;perimeter=rhombusPerimeter;whiteSpace=wrap;html=1;align=center;" vertex="1" parent="1">
          <mxGeometry x="112.5" y="69" width="100" height="50" as="geometry" />
        </mxCell>
        <mxCell id="-I_rnd9T3mD2Z0JPihhL-97" value="M..N" style="text;html=1;align=center;verticalAlign=middle;resizable=0;points=[];autosize=1;strokeColor=none;fillColor=none;" vertex="1" parent="1">
          <mxGeometry x="167" y="99" width="50" height="30" as="geometry" />
        </mxCell>
        <mxCell id="-I_rnd9T3mD2Z0JPihhL-98" value="N..N" style="text;html=1;align=center;verticalAlign=middle;resizable=0;points=[];autosize=1;strokeColor=none;fillColor=none;" vertex="1" parent="1">
          <mxGeometry x="150" y="49" width="50" height="30" as="geometry" />
        </mxCell>
        <mxCell id="-I_rnd9T3mD2Z0JPihhL-101" style="edgeStyle=orthogonalEdgeStyle;rounded=0;orthogonalLoop=1;jettySize=auto;html=1;exitX=0;exitY=0.5;exitDx=0;exitDy=0;entryX=1;entryY=0.5;entryDx=0;entryDy=0;endArrow=none;endFill=0;" edge="1" parent="1" source="-I_rnd9T3mD2Z0JPihhL-99" target="-I_rnd9T3mD2Z0JPihhL-34">
          <mxGeometry relative="1" as="geometry" />
        </mxCell>
        <mxCell id="-I_rnd9T3mD2Z0JPihhL-99" value="Memberikan" style="shape=rhombus;perimeter=rhombusPerimeter;whiteSpace=wrap;html=1;align=center;" vertex="1" parent="1">
          <mxGeometry x="-50" y="320" width="120" height="60" as="geometry" />
        </mxCell>
        <mxCell id="-I_rnd9T3mD2Z0JPihhL-105" value="M..1" style="text;html=1;align=center;verticalAlign=middle;resizable=0;points=[];autosize=1;strokeColor=none;fillColor=none;" vertex="1" parent="1">
          <mxGeometry x="-2" y="298" width="50" height="30" as="geometry" />
        </mxCell>
        <mxCell id="-I_rnd9T3mD2Z0JPihhL-106" value="1..M" style="text;html=1;align=center;verticalAlign=middle;resizable=0;points=[];autosize=1;strokeColor=none;fillColor=none;" vertex="1" parent="1">
          <mxGeometry x="-94" y="344" width="50" height="30" as="geometry" />
        </mxCell>
      </root>
    </mxGraphModel>
  </diagram>
</mxfile>
